<?xml version="1.0" standalone="no"?>
<!DOCTYPE svg PUBLIC "-//W3C//DTD SVG 20010904//EN"
 "http://www.w3.org/TR/2001/REC-SVG-20010904/DTD/svg10.dtd">
<svg version="1.0" xmlns="http://www.w3.org/2000/svg"
 width="1200.000000pt" height="1200.000000pt" viewBox="0 0 1200.000000 1200.000000"
 preserveAspectRatio="xMidYMid meet">
<metadata>
Created by potrace 1.14, written by Peter Selinger 2001-2017
</metadata>
<g transform="translate(0.000000,1200.000000) scale(0.100000,-0.100000)"
fill="#000000" stroke="none">
<path d="M5695 10110 c-541 -48 -1054 -193 -1537 -435 -426 -213 -753 -449
-1089 -785 -102 -102 -234 -246 -293 -320 -115 -145 -281 -388 -364 -536 -190
-335 -373 -806 -403 -1033 -22 -163 15 -294 113 -397 67 -71 138 -122 314
-225 207 -121 270 -165 367 -258 137 -131 210 -256 256 -437 33 -131 44 -264
44 -529 0 -355 -24 -511 -152 -965 -113 -405 -137 -583 -98 -730 132 -495 898
-1081 1817 -1390 725 -244 1393 -276 2164 -104 1105 246 2043 880 2629 1775
347 529 551 1100 634 1769 22 181 25 718 5 905 -91 843 -393 1579 -907 2210
-114 141 -366 398 -507 517 -629 534 -1374 854 -2218 954 -158 18 -627 27
-775 14z m484 -680 c206 -50 386 -191 487 -383 57 -109 75 -177 81 -312 6
-132 -11 -225 -61 -339 -96 -218 -302 -382 -538 -430 -340 -70 -694 113 -834
430 -50 114 -67 207 -61 339 6 135 24 203 81 312 110 208 297 346 541 397 60
12 226 4 304 -14z m2084 -956 c97 -21 238 -91 317 -157 115 -95 204 -235 246
-388 13 -46 18 -100 18 -189 0 -115 -3 -133 -33 -220 -152 -445 -630 -646
-1046 -441 -183 91 -311 243 -382 456 -23 69 -26 97 -27 205 0 145 15 212 74
335 146 304 499 473 833 399z m577 -2361 c92 -21 235 -93 305 -154 177 -153
266 -344 268 -574 1 -130 -16 -203 -72 -320 -51 -107 -116 -192 -197 -259
-130 -107 -272 -163 -439 -173 -227 -13 -430 69 -588 236 -128 136 -196 294
-204 476 -10 224 60 407 217 565 187 189 448 264 710 203z m-4165 -1258 c242
-63 429 -226 522 -455 68 -170 70 -375 3 -552 -58 -154 -208 -317 -364 -393
-127 -63 -197 -79 -336 -79 -139 0 -209 16 -336 79 -156 76 -306 239 -364 393
-83 221 -61 462 61 669 48 80 171 202 254 251 170 100 382 133 560 87z"/>
</g>
</svg>
